<svg width="1280" height="555" viewBox="0 0 1280 555" fill="none" xmlns="http://www.w3.org/2000/svg">
<g clip-path="url(#clip0_715_363)">
<path d="M0 23C0 10.2975 10.2975 0 23 0H1257C1269.7 0 1280 10.2975 1280 23V532C1280 544.703 1269.7 555 1257 555H23C10.2975 555 0 544.703 0 532V23Z" fill="black"/>
<path d="M3 23C3 11.9543 11.9543 3 23 3H1257C1268.05 3 1277 11.9543 1277 23V532C1277 543.046 1268.05 552 1257 552H23C11.9543 552 3 543.046 3 532V23Z" fill="white"/>
<path d="M9 23C9 15.268 15.268 9 23 9H1257C1264.73 9 1271 15.268 1271 23V529C1271 536.732 1264.73 543 1257 543H23C15.268 543 9 536.732 9 529V23Z" fill="black"/>
<path d="M12 23C12 16.9249 16.9249 12 23 12H1257C1263.08 12 1268 16.9249 1268 23V188H12V23Z" fill="white"/>
<path d="M12 188H1268V364H12V188Z" fill="white"/>
<path d="M12 364H1268V529C1268 535.075 1263.08 540 1257 540H23C16.9249 540 12 535.075 12 529V364Z" fill="white"/>
<path d="M211 225C211 218.925 215.925 214 222 214H1057C1063.08 214 1068 218.925 1068 225V325C1068 331.075 1063.08 336 1057 336H222C215.925 336 211 331.075 211 325V225Z" fill="#0D69E1"/>
<path d="M1268 187V190H9V187H1268Z" fill="black"/>
<path d="M1270 362V365H9V362H1270Z" fill="black"/>
<path d="M211 50C211 43.9248 215.925 39 222 39H826C832.076 39 837 43.9248 837 50V150C837 156.075 832.076 161 826 161H222C215.925 161 211 156.075 211 150V50Z" fill="#0D69E1"/>
<path d="M132.505 112.878L165.397 112.877L112.765 21.0352L60.0352 112.877L92.9273 112.878L92.8925 178.41H132.47L132.505 112.878Z" fill="black"/>
<path fill-rule="evenodd" clip-rule="evenodd" d="M455.704 100.705V97.3847C455.704 92.8193 455.095 88.7381 453.878 85.1411C452.688 81.5164 450.986 78.4313 448.773 75.8857C446.559 73.3125 443.917 71.3618 440.846 70.0336C437.774 68.6779 434.371 68 430.636 68C426.928 68 423.539 68.6779 420.467 70.0336C417.424 71.3618 414.781 73.3125 412.54 75.8857C410.326 78.4313 408.611 81.5164 407.394 85.1411C406.176 88.7381 405.567 92.8193 405.567 97.3847V100.705C405.567 105.27 406.176 109.365 407.394 112.99C408.639 116.615 410.382 119.7 412.623 122.245C414.864 124.791 417.507 126.742 420.55 128.097C423.622 129.426 427.011 130.09 430.719 130.09C434.454 130.09 437.857 129.426 440.929 128.097C444 126.742 446.629 124.791 448.814 122.245C451.028 119.7 452.73 116.615 453.919 112.99C455.109 109.365 455.704 105.27 455.704 100.705ZM445.287 97.3017V100.705C445.287 104.08 444.955 107.069 444.29 109.67C443.654 112.271 442.713 114.47 441.468 116.269C440.223 118.04 438.701 119.382 436.903 120.295C435.104 121.18 433.043 121.623 430.719 121.623C428.422 121.623 426.375 121.18 424.576 120.295C422.778 119.382 421.228 118.04 419.928 116.269C418.655 114.47 417.686 112.271 417.022 109.67C416.358 107.069 416.026 104.08 416.026 100.705V97.3017C416.026 93.9261 416.358 90.9516 417.022 88.3784C417.686 85.7775 418.641 83.6054 419.886 81.8623C421.159 80.0914 422.695 78.7633 424.493 77.8779C426.292 76.9648 428.339 76.5083 430.636 76.5083C432.932 76.5083 434.994 76.9648 436.82 77.8779C438.646 78.7633 440.182 80.0914 441.427 81.8623C442.7 83.6054 443.654 85.7775 444.29 88.3784C444.955 90.9516 445.287 93.9261 445.287 97.3017Z" fill="white"/>
<path d="M268.562 102.323H241.418V129.26H231V68.8296H241.418V94.064H268.562V68.8296H278.937V129.26H268.562V102.323Z" fill="white"/>
<path d="M295.343 120.378C294.292 121.429 293.766 122.73 293.766 124.279C293.766 125.829 294.292 127.129 295.343 128.18C296.395 129.232 297.82 129.758 299.618 129.758C301.444 129.758 302.869 129.232 303.893 128.18C304.944 127.129 305.47 125.829 305.47 124.279C305.47 122.73 304.944 121.429 303.893 120.378C302.869 119.299 301.444 118.759 299.618 118.759C297.82 118.759 296.395 119.299 295.343 120.378Z" fill="white"/>
<path d="M350.589 102.323H377.732V129.26H388.108V68.8296H377.732V94.064H350.589V68.8296H340.171V129.26H350.589V102.323Z" fill="white"/>
<path fill-rule="evenodd" clip-rule="evenodd" d="M505.777 97.0108C505.256 97.3027 504.705 97.5682 504.126 97.8072C505.557 98.1755 506.827 98.7125 507.936 99.418C510.094 100.774 511.699 102.531 512.75 104.689C513.801 106.847 514.327 109.172 514.327 111.662C514.327 115.508 513.483 118.731 511.795 121.332C510.135 123.933 507.742 125.912 504.615 127.267C501.489 128.595 497.726 129.26 493.326 129.26H471.122V68.8296H491.624C494.945 68.8296 497.905 69.1478 500.506 69.7842C503.135 70.4206 505.362 71.4167 507.188 72.7725C509.042 74.1006 510.44 75.7885 511.38 77.836C512.349 79.8835 512.833 82.3184 512.833 85.1407C512.833 87.6309 512.238 89.9136 511.048 91.9888C509.859 94.0363 508.102 95.7103 505.777 97.0108ZM481.539 101.95V121H493.326C495.678 121 497.643 120.613 499.22 119.838C500.797 119.036 501.973 117.943 502.748 116.559C503.55 115.148 503.951 113.502 503.951 111.62C503.951 109.656 503.605 107.954 502.914 106.515C502.222 105.049 501.129 103.928 499.635 103.154C498.141 102.351 496.19 101.95 493.783 101.95H481.539ZM481.539 77.1304V94.3545H491.749C494.018 94.3545 495.941 94.0225 497.518 93.3584C499.123 92.6667 500.34 91.6845 501.17 90.4117C502 89.1112 502.415 87.5479 502.415 85.7217C502.415 83.7019 502.028 82.0555 501.253 80.7828C500.479 79.51 499.289 78.5831 497.684 78.002C496.107 77.4209 494.087 77.1304 491.624 77.1304H481.539Z" fill="white"/>
<path d="M568.468 77.1304V68.8296H530.035V129.26H540.411V77.1304H568.468Z" fill="white"/>
<path fill-rule="evenodd" clip-rule="evenodd" d="M624.506 97.3847V100.705C624.506 105.27 623.911 109.365 622.721 112.99C621.531 116.615 619.83 119.7 617.616 122.245C615.43 124.791 612.802 126.742 609.73 128.097C606.659 129.426 603.256 130.09 599.521 130.09C595.813 130.09 592.423 129.426 589.352 128.097C586.308 126.742 583.666 124.791 581.425 122.245C579.184 119.7 577.44 116.615 576.195 112.99C574.978 109.365 574.369 105.27 574.369 100.705V97.3847C574.369 92.8193 574.978 88.7381 576.195 85.1411C577.413 81.5164 579.128 78.4313 581.342 75.8857C583.583 73.3125 586.225 71.3618 589.269 70.0336C592.34 68.6779 595.73 68 599.438 68C603.173 68 606.576 68.6779 609.647 70.0336C612.719 71.3618 615.361 73.3125 617.575 75.8857C619.788 78.4313 621.49 81.5164 622.68 85.1411C623.897 88.7381 624.506 92.8193 624.506 97.3847ZM614.088 100.705V97.3017C614.088 93.9261 613.756 90.9516 613.092 88.3784C612.456 85.7775 611.501 83.6054 610.229 81.8623C608.983 80.0914 607.448 78.7633 605.622 77.8779C603.795 76.9648 601.734 76.5083 599.438 76.5083C597.141 76.5083 595.093 76.9648 593.295 77.8779C591.496 78.7633 589.961 80.0914 588.688 81.8623C587.443 83.6054 586.488 85.7775 585.824 88.3784C585.16 90.9516 584.828 93.9261 584.828 97.3017V100.705C584.828 104.08 585.16 107.069 585.824 109.67C586.488 112.271 587.457 114.47 588.729 116.269C590.03 118.04 591.579 119.382 593.378 120.295C595.176 121.18 597.224 121.623 599.521 121.623C601.845 121.623 603.906 121.18 605.705 120.295C607.503 119.382 609.025 118.04 610.27 116.269C611.515 114.47 612.456 112.271 613.092 109.67C613.756 107.069 614.088 104.08 614.088 100.705Z" fill="white"/>
<path fill-rule="evenodd" clip-rule="evenodd" d="M652.341 106.723H664.875C669.551 106.723 673.522 105.976 676.787 104.482C680.079 102.988 682.583 100.843 684.299 98.0484C686.014 95.2538 686.872 91.9058 686.872 88.0044C686.872 84.2968 686.014 81.0041 684.299 78.1265C682.583 75.2212 680.079 72.9524 676.787 71.3199C673.522 69.6597 669.551 68.8296 664.875 68.8296H641.923V129.26H652.341V106.723ZM652.341 98.4634V77.1304H664.875C667.614 77.1304 669.828 77.6423 671.516 78.6661C673.203 79.6898 674.435 81.0456 675.209 82.7334C676.012 84.3936 676.413 86.1783 676.413 88.0874C676.413 90.1073 676.012 91.9058 675.209 93.483C674.435 95.0324 673.203 96.2499 671.516 97.1353C669.828 98.0207 667.614 98.4634 664.875 98.4634H652.341Z" fill="white"/>
<path fill-rule="evenodd" clip-rule="evenodd" d="M749.396 97.3847V100.705C749.396 105.27 748.802 109.365 747.612 112.99C746.422 116.615 744.72 119.7 742.507 122.245C740.321 124.791 737.692 126.742 734.621 128.097C731.55 129.426 728.146 130.09 724.411 130.09C720.703 130.09 717.314 129.426 714.243 128.097C711.199 126.742 708.557 124.791 706.315 122.245C704.074 119.7 702.331 116.615 701.086 112.99C699.868 109.365 699.26 105.27 699.26 100.705V97.3847C699.26 92.8193 699.868 88.7381 701.086 85.1411C702.303 81.5164 704.019 78.4313 706.232 75.8857C708.474 73.3125 711.116 71.3618 714.16 70.0336C717.231 68.6779 720.62 68 724.328 68C728.063 68 731.467 68.6779 734.538 70.0336C737.609 71.3618 740.252 73.3125 742.465 75.8857C744.679 78.4313 746.381 81.5164 747.57 85.1411C748.788 88.7381 749.396 92.8193 749.396 97.3847ZM738.979 100.705V97.3017C738.979 93.9261 738.647 90.9516 737.983 88.3784C737.346 85.7775 736.392 83.6054 735.119 81.8623C733.874 80.0914 732.338 78.7633 730.512 77.8779C728.686 76.9648 726.625 76.5083 724.328 76.5083C722.032 76.5083 719.984 76.9648 718.186 77.8779C716.387 78.7633 714.851 80.0914 713.579 81.8623C712.333 83.6054 711.379 85.7775 710.715 88.3784C710.051 90.9516 709.719 93.9261 709.719 97.3017V100.705C709.719 104.08 710.051 107.069 710.715 109.67C711.379 112.271 712.347 114.47 713.62 116.269C714.921 118.04 716.47 119.382 718.269 120.295C720.067 121.18 722.115 121.623 724.411 121.623C726.735 121.623 728.797 121.18 730.595 120.295C732.394 119.382 733.916 118.04 735.161 116.269C736.406 114.47 737.346 112.271 737.983 109.67C738.647 107.069 738.979 104.08 738.979 100.705Z" fill="white"/>
<path fill-rule="evenodd" clip-rule="evenodd" d="M766.172 129.26H805.767V144.076H815.562L816.184 121H808.796V68.8296H770.862L769.368 93.3169C769.119 97.7994 768.662 101.632 767.998 104.814C767.334 107.996 766.559 110.666 765.674 112.824C764.816 114.955 763.931 116.684 763.018 118.012C762.104 119.312 761.274 120.309 760.527 121H755.837L756.211 144.118H766.172V129.26ZM772.306 121H798.42V77.1304H780.787L779.827 93.3169C779.605 97.1906 779.204 100.677 778.623 103.776C778.042 106.875 777.336 109.656 776.506 112.118C775.704 114.553 774.791 116.712 773.767 118.593C773.295 119.448 772.808 120.251 772.306 121Z" fill="white"/>
<path d="M130.878 255.906L130.877 223.014L39.0352 275.646L130.877 328.375L130.878 295.483L196.41 295.518V255.941L130.878 255.906Z" fill="black"/>
<path d="M1036.5 246.481L1009.69 289.936V246.481H999.311V306.911H1009.69L1036.5 263.415V306.911H1046.92V246.481H1036.5Z" fill="white"/>
<path d="M1036.75 231H1029.32C1029.32 232.55 1028.86 233.919 1027.95 235.109C1027.04 236.271 1025.49 236.852 1023.3 236.852C1021.09 236.852 1019.51 236.271 1018.57 235.109C1017.66 233.919 1017.2 232.55 1017.2 231H1009.77C1009.77 234.459 1010.97 237.281 1013.38 239.467C1015.82 241.625 1019.12 242.704 1023.3 242.704C1026.07 242.704 1028.45 242.206 1030.44 241.21C1032.46 240.214 1034.01 238.844 1035.09 237.101C1036.19 235.33 1036.75 233.297 1036.75 231Z" fill="white"/>
<path fill-rule="evenodd" clip-rule="evenodd" d="M243.1 273.666V246.481H232.682V306.911H243.1V281.635H250.846C251.072 284.905 251.644 287.907 252.562 290.641C253.78 294.266 255.509 297.351 257.75 299.897C259.992 302.442 262.648 304.393 265.719 305.749C268.791 307.077 272.166 307.741 275.846 307.741C279.609 307.741 283.013 307.077 286.056 305.749C289.127 304.393 291.77 302.442 293.983 299.897C296.197 297.351 297.899 294.266 299.088 290.641C300.278 287.017 300.873 282.922 300.873 278.356V275.036C300.873 270.47 300.264 266.389 299.047 262.792C297.857 259.167 296.155 256.082 293.942 253.537C291.728 250.964 289.086 249.013 286.015 247.685C282.943 246.329 279.526 245.651 275.763 245.651C272.083 245.651 268.708 246.329 265.636 247.685C262.565 249.013 259.923 250.964 257.709 253.537C255.495 256.082 253.78 259.167 252.562 262.792C251.468 266.026 250.866 269.65 250.755 273.666H243.1ZM290.456 274.953V278.356C290.456 281.732 290.124 284.72 289.459 287.321C288.823 289.922 287.882 292.122 286.637 293.92C285.392 295.691 283.87 297.033 282.072 297.946C280.273 298.831 278.198 299.274 275.846 299.274C273.577 299.274 271.544 298.831 269.745 297.946C267.947 297.033 266.397 295.691 265.097 293.92C263.824 292.122 262.855 289.922 262.191 287.321C261.527 284.72 261.195 281.732 261.195 278.356V274.953C261.195 271.577 261.527 268.603 262.191 266.029C262.855 263.429 263.81 261.256 265.055 259.513C266.328 257.742 267.864 256.414 269.662 255.529C271.461 254.616 273.494 254.159 275.763 254.159C278.087 254.159 280.163 254.616 281.989 255.529C283.815 256.414 285.351 257.742 286.596 259.513C287.841 261.256 288.795 263.429 289.459 266.029C290.124 268.603 290.456 271.577 290.456 274.953Z" fill="white"/>
<path fill-rule="evenodd" clip-rule="evenodd" d="M327.802 284.374H340.337C345.013 284.374 348.983 283.627 352.248 282.133C355.541 280.639 358.045 278.494 359.76 275.7C361.476 272.905 362.334 269.557 362.334 265.656C362.334 261.948 361.476 258.656 359.76 255.778C358.045 252.873 355.541 250.604 352.248 248.971C348.983 247.311 345.013 246.481 340.337 246.481H317.385V306.911H327.802V284.374ZM327.802 276.115V254.782H340.337C343.076 254.782 345.289 255.294 346.977 256.318C348.665 257.341 349.896 258.697 350.671 260.385C351.474 262.045 351.875 263.83 351.875 265.739C351.875 267.759 351.474 269.557 350.671 271.134C349.896 272.684 348.665 273.901 346.977 274.787C345.289 275.672 343.076 276.115 340.337 276.115H327.802Z" fill="white"/>
<path fill-rule="evenodd" clip-rule="evenodd" d="M388.765 269.682H400.718C405.311 269.682 409.24 270.457 412.505 272.006C415.77 273.528 418.26 275.672 419.976 278.439C421.691 281.206 422.549 284.429 422.549 288.11C422.549 290.876 422.065 293.408 421.097 295.705C420.128 298.001 418.703 299.993 416.822 301.681C414.94 303.341 412.644 304.628 409.932 305.541C407.248 306.454 404.177 306.911 400.718 306.911H378.306V246.481H388.765V269.682ZM388.765 298.652V277.941H400.718C403.347 277.941 405.505 278.398 407.193 279.311C408.881 280.224 410.126 281.441 410.928 282.963C411.758 284.485 412.173 286.173 412.173 288.027C412.173 289.936 411.758 291.693 410.928 293.298C410.126 294.902 408.881 296.203 407.193 297.199C405.505 298.167 403.347 298.652 400.718 298.652H388.765Z" fill="white"/>
<path d="M478.033 306.911V298.652H448.898V279.85H473.841V271.715H448.898V254.782H477.826V246.481H438.48V306.911H478.033Z" fill="white"/>
<path fill-rule="evenodd" clip-rule="evenodd" d="M527.997 274.662C527.476 274.954 526.925 275.22 526.346 275.459C527.777 275.827 529.047 276.364 530.156 277.069C532.314 278.425 533.919 280.182 534.97 282.34C536.021 284.499 536.547 286.823 536.547 289.313C536.547 293.159 535.703 296.383 534.015 298.984C532.355 301.584 529.962 303.563 526.835 304.919C523.709 306.247 519.946 306.911 515.546 306.911H493.342V246.481H513.845C517.165 246.481 520.125 246.799 522.726 247.436C525.355 248.072 527.582 249.068 529.409 250.424C531.262 251.752 532.66 253.44 533.6 255.487C534.569 257.535 535.053 259.97 535.053 262.792C535.053 265.282 534.458 267.565 533.268 269.64C532.079 271.688 530.322 273.362 527.997 274.662ZM503.759 279.601V298.652H515.546C517.898 298.652 519.863 298.264 521.44 297.489C523.017 296.687 524.193 295.594 524.968 294.211C525.77 292.799 526.171 291.153 526.171 289.272C526.171 287.307 525.825 285.605 525.134 284.167C524.442 282.7 523.349 281.58 521.855 280.805C520.361 280.002 518.41 279.601 516.003 279.601H503.759ZM503.759 254.782V272.006H513.969C516.238 272.006 518.161 271.674 519.738 271.01C521.343 270.318 522.56 269.336 523.39 268.063C524.221 266.763 524.636 265.199 524.636 263.373C524.636 261.353 524.248 259.707 523.473 258.434C522.699 257.161 521.509 256.235 519.904 255.653C518.327 255.072 516.307 254.782 513.845 254.782H503.759Z" fill="white"/>
<path d="M572.981 285.08V277.111H551.025V285.08H572.981Z" fill="white"/>
<path d="M630.347 246.481V306.911H619.971V254.782H593.118V306.911H582.742V246.481H630.347Z" fill="white"/>
<path fill-rule="evenodd" clip-rule="evenodd" d="M696.867 278.356V275.036C696.867 270.47 696.258 266.389 695.041 262.792C693.851 259.167 692.149 256.082 689.936 253.537C687.722 250.964 685.08 249.013 682.009 247.685C678.937 246.329 675.534 245.651 671.799 245.651C668.091 245.651 664.702 246.329 661.63 247.685C658.587 249.013 655.944 250.964 653.703 253.537C651.49 256.082 649.774 259.167 648.557 262.792C647.339 266.389 646.73 270.47 646.73 275.036V278.356C646.73 282.922 647.339 287.017 648.557 290.641C649.802 294.266 651.545 297.351 653.786 299.897C656.027 302.442 658.67 304.393 661.713 305.749C664.785 307.077 668.174 307.741 671.882 307.741C675.617 307.741 679.02 307.077 682.092 305.749C685.163 304.393 687.792 302.442 689.977 299.897C692.191 297.351 693.893 294.266 695.082 290.641C696.272 287.017 696.867 282.922 696.867 278.356ZM686.45 274.953V278.356C686.45 281.732 686.118 284.72 685.453 287.321C684.817 289.922 683.876 292.122 682.631 293.92C681.386 295.691 679.864 297.033 678.066 297.946C676.267 298.831 674.206 299.274 671.882 299.274C669.585 299.274 667.538 298.831 665.739 297.946C663.941 297.033 662.391 295.691 661.091 293.92C659.818 292.122 658.849 289.922 658.185 287.321C657.521 284.72 657.189 281.732 657.189 278.356V274.953C657.189 271.577 657.521 268.603 658.185 266.029C658.849 263.429 659.804 261.256 661.049 259.513C662.322 257.742 663.858 256.414 665.656 255.529C667.455 254.616 669.502 254.159 671.799 254.159C674.095 254.159 676.157 254.616 677.983 255.529C679.809 256.414 681.345 257.742 682.59 259.513C683.863 261.256 684.817 263.429 685.453 266.029C686.118 268.603 686.45 271.577 686.45 274.953Z" fill="white"/>
<path d="M745.944 254.782H727.28L726.23 276.488C726.036 280.888 725.662 284.762 725.109 288.11C724.556 291.458 723.809 294.321 722.868 296.701C721.927 299.08 720.737 301.031 719.298 302.553C717.86 304.047 716.13 305.154 714.11 305.873C712.118 306.565 709.78 306.911 707.096 306.911H704.44V298.652L706.059 298.527C707.525 298.416 708.784 298.07 709.836 297.489C710.915 296.881 711.828 295.995 712.575 294.833C713.322 293.643 713.944 292.108 714.443 290.226C714.941 288.345 715.328 286.048 715.605 283.337C715.909 280.625 716.13 277.457 716.269 273.832L717.348 246.481H756.361V306.911H745.944V254.782Z" fill="white"/>
<path fill-rule="evenodd" clip-rule="evenodd" d="M791.9 269.682H779.947V246.481H769.488V306.911H791.9C795.359 306.911 798.43 306.454 801.114 305.541C803.826 304.628 806.122 303.341 808.004 301.681C809.885 299.993 811.31 298.001 812.279 295.705C813.247 293.408 813.731 290.876 813.731 288.11C813.731 284.429 812.874 281.206 811.158 278.439C809.443 275.672 806.952 273.528 803.687 272.006C800.422 270.457 796.493 269.682 791.9 269.682ZM779.947 277.941V298.652H791.9C794.529 298.652 796.687 298.167 798.375 297.199C800.063 296.203 801.308 294.902 802.11 293.298C802.94 291.693 803.355 289.936 803.355 288.027C803.355 286.173 802.94 284.485 802.11 282.963C801.308 281.441 800.063 280.224 798.375 279.311C796.687 278.398 794.529 277.941 791.9 277.941H779.947Z" fill="white"/>
<path d="M861.355 287.238H871.731C871.399 291.195 870.293 294.722 868.411 297.821C866.53 300.893 863.887 303.314 860.484 305.085C857.081 306.855 852.944 307.741 848.074 307.741C844.339 307.741 840.977 307.077 837.989 305.749C835 304.393 832.441 302.484 830.311 300.021C828.18 297.531 826.548 294.529 825.413 291.015C824.306 287.501 823.753 283.572 823.753 279.228V274.206C823.753 269.862 824.32 265.933 825.455 262.419C826.617 258.905 828.277 255.902 830.435 253.412C832.593 250.894 835.18 248.971 838.196 247.643C841.24 246.315 844.657 245.651 848.448 245.651C853.262 245.651 857.33 246.536 860.65 248.307C863.97 250.078 866.543 252.527 868.37 255.653C870.223 258.78 871.358 262.363 871.773 266.403H861.397C861.12 263.802 860.512 261.575 859.571 259.721C858.658 257.867 857.302 256.456 855.503 255.487C853.705 254.491 851.353 253.993 848.448 253.993C846.068 253.993 843.993 254.436 842.222 255.321C840.451 256.207 838.971 257.507 837.781 259.223C836.591 260.938 835.692 263.055 835.083 265.573C834.502 268.063 834.212 270.913 834.212 274.123V279.228C834.212 282.271 834.475 285.038 835 287.528C835.554 289.991 836.384 292.108 837.491 293.879C838.625 295.649 840.064 297.019 841.807 297.987C843.55 298.956 845.639 299.44 848.074 299.44C851.035 299.44 853.428 298.97 855.254 298.029C857.108 297.088 858.506 295.719 859.446 293.92C860.415 292.094 861.051 289.867 861.355 287.238Z" fill="white"/>
<path d="M896.578 271.881V246.481H886.202V306.911H896.578V280.929H901.881L920.31 306.911H932.803L910.341 275.354L930.935 246.481H918.194L900.596 271.881H896.578Z" fill="white"/>
<path d="M950.872 289.936L977.684 246.481H988.101V306.911H977.684V263.415L950.872 306.911H940.496V246.481H950.872V289.936Z" fill="white"/>
<path d="M1148.53 471.504V504.397L1240.38 451.765L1148.53 399.035V431.927L1083 431.892V471.47L1148.53 471.504Z" fill="black"/>
<path fill-rule="evenodd" clip-rule="evenodd" d="M518.061 406.978C518.64 406.739 519.19 406.473 519.712 406.181C522.036 404.881 523.793 403.207 524.983 401.159C526.173 399.084 526.768 396.801 526.768 394.311C526.768 391.489 526.283 389.054 525.315 387.006C524.374 384.959 522.977 383.271 521.123 381.943C519.297 380.587 517.069 379.591 514.441 378.955C511.84 378.318 508.879 378 505.559 378H485.056V438.43H507.261C511.66 438.43 515.423 437.766 518.55 436.438C521.676 435.082 524.07 433.103 525.73 430.502C527.418 427.902 528.262 424.678 528.262 420.832C528.262 418.342 527.736 416.018 526.685 413.859C525.633 411.701 524.028 409.944 521.87 408.588C520.761 407.883 519.492 407.346 518.061 406.978ZM495.474 411.12H507.717C510.125 411.12 512.075 411.521 513.569 412.324C515.063 413.098 516.156 414.219 516.848 415.686C517.54 417.124 517.886 418.826 517.886 420.791C517.886 422.672 517.484 424.318 516.682 425.729C515.907 427.113 514.731 428.206 513.154 429.008C511.577 429.783 509.613 430.17 507.261 430.17H495.474V411.12ZM495.474 403.525V386.301H505.559C508.022 386.301 510.042 386.591 511.619 387.172C513.224 387.753 514.413 388.68 515.188 389.953C515.963 391.226 516.35 392.872 516.35 394.892C516.35 396.718 515.935 398.282 515.105 399.582C514.275 400.855 513.057 401.837 511.453 402.529C509.875 403.193 507.952 403.525 505.684 403.525H495.474Z" fill="black"/>
<path fill-rule="evenodd" clip-rule="evenodd" d="M261.101 416.474V415.52C261.101 412.282 261.571 409.28 262.512 406.513C263.453 403.719 264.809 401.298 266.58 399.25C268.378 397.175 270.564 395.57 273.137 394.436C275.738 393.273 278.671 392.692 281.936 392.692C285.229 392.692 288.162 393.273 290.735 394.436C293.336 395.57 295.535 397.175 297.334 399.25C299.132 401.298 300.502 403.719 301.443 406.513C302.384 409.28 302.854 412.282 302.854 415.52V416.474C302.854 419.711 302.384 422.714 301.443 425.48C300.502 428.247 299.132 430.668 297.334 432.744C295.535 434.791 293.35 436.396 290.776 437.558C288.203 438.693 285.284 439.26 282.019 439.26C278.726 439.26 275.78 438.693 273.179 437.558C270.605 436.396 268.42 434.791 266.621 432.744C264.823 430.668 263.453 428.247 262.512 425.48C261.571 422.714 261.101 419.711 261.101 416.474ZM271.104 415.52V416.474C271.104 418.494 271.311 420.403 271.726 422.202C272.141 424 272.791 425.577 273.677 426.933C274.562 428.289 275.697 429.354 277.08 430.129C278.464 430.904 280.11 431.291 282.019 431.291C283.873 431.291 285.478 430.904 286.833 430.129C288.217 429.354 289.351 428.289 290.237 426.933C291.122 425.577 291.772 424 292.188 422.202C292.63 420.403 292.852 418.494 292.852 416.474V415.52C292.852 413.527 292.63 411.646 292.188 409.875C291.772 408.077 291.108 406.486 290.195 405.102C289.31 403.719 288.175 402.639 286.792 401.865C285.436 401.062 283.818 400.661 281.936 400.661C280.055 400.661 278.422 401.062 277.039 401.865C275.683 402.639 274.562 403.719 273.677 405.102C272.791 406.486 272.141 408.077 271.726 409.875C271.311 411.646 271.104 413.527 271.104 415.52Z" fill="black"/>
<path d="M258.03 393.522V401.491H238.44V438.43H228.438V393.522H258.03Z" fill="black"/>
<path d="M333.982 430.336C332.681 430.973 331.215 431.291 329.583 431.291C327.535 431.291 325.847 430.89 324.519 430.087C323.191 429.257 322.139 428.164 321.365 426.809C320.618 425.425 320.092 423.862 319.788 422.119C319.483 420.375 319.331 418.577 319.331 416.723V415.271C319.331 413.417 319.483 411.632 319.788 409.917C320.12 408.173 320.659 406.61 321.406 405.227C322.153 403.815 323.191 402.709 324.519 401.906C325.847 401.076 327.521 400.661 329.541 400.661C331.367 400.661 332.931 401.062 334.231 401.865C335.559 402.667 336.583 403.746 337.302 405.102C338.049 406.43 338.464 407.924 338.547 409.584H347.969C347.913 406.236 347.097 403.304 345.52 400.786C343.971 398.24 341.84 396.262 339.128 394.851C336.417 393.412 333.263 392.692 329.666 392.692C326.262 392.692 323.288 393.287 320.742 394.477C318.197 395.639 316.08 397.258 314.392 399.333C312.704 401.408 311.431 403.815 310.574 406.555C309.744 409.266 309.329 412.172 309.329 415.271V416.723C309.329 419.822 309.744 422.727 310.574 425.439C311.431 428.151 312.704 430.544 314.392 432.619C316.08 434.694 318.197 436.327 320.742 437.517C323.288 438.679 326.276 439.26 329.707 439.26C333.027 439.26 336.057 438.568 338.796 437.185C341.536 435.773 343.735 433.878 345.396 431.499C347.056 429.119 347.913 426.477 347.969 423.571H338.547C338.464 425.093 338.008 426.435 337.178 427.597C336.375 428.759 335.31 429.672 333.982 430.336Z" fill="black"/>
<path d="M376.482 401.408V438.43H366.438V401.408H351.953V393.522H391.216V401.408H376.482Z" fill="black"/>
<path d="M391.89 429.548C390.839 430.599 390.313 431.9 390.313 433.449C390.313 434.999 390.839 436.299 391.89 437.351C392.942 438.402 394.367 438.928 396.165 438.928C397.991 438.928 399.416 438.402 400.44 437.351C401.491 436.299 402.017 434.999 402.017 433.449C402.017 431.9 401.491 430.599 400.44 429.548C399.416 428.469 397.991 427.929 396.165 427.929C394.367 427.929 392.942 428.469 391.89 429.548Z" fill="black"/>
<path d="M455.946 399.624L445.645 416.163L455.946 432.744H449.098L437.187 416.557V415.769L449.098 399.624H455.946Z" fill="black"/>
<path d="M470.971 399.624L460.669 416.163L470.971 432.744H464.123L452.211 416.557V415.769L464.123 399.624H470.971Z" fill="black"/>
<path d="M575.95 386.301H557.286L556.235 408.007C556.042 412.407 555.668 416.28 555.115 419.628C554.561 422.976 553.814 425.84 552.874 428.22C551.933 430.599 550.743 432.55 549.304 434.072C547.865 435.566 546.136 436.673 544.116 437.392C542.124 438.084 539.786 438.43 537.102 438.43H534.446V430.17L536.064 430.046C537.531 429.935 538.79 429.589 539.841 429.008C540.92 428.4 541.833 427.514 542.581 426.352C543.328 425.162 543.95 423.627 544.448 421.745C544.946 419.864 545.334 417.567 545.61 414.855C545.915 412.144 546.136 408.976 546.274 405.351L547.354 378H586.367V438.43H575.95V386.301Z" fill="black"/>
<path fill-rule="evenodd" clip-rule="evenodd" d="M626.377 378L649.204 438.43H638.247L631.976 420.277H611.343L605.085 438.43H594.17L616.914 378H626.377ZM614.189 412.018H629.122L621.647 390.382L614.189 412.018Z" fill="black"/>
<path fill-rule="evenodd" clip-rule="evenodd" d="M662.568 438.43V453.288H652.607L652.234 430.17H656.924C657.671 429.479 658.501 428.483 659.414 427.182C660.327 425.854 661.213 424.125 662.07 421.994C662.956 419.836 663.73 417.166 664.395 413.984C665.059 410.802 665.515 406.97 665.764 402.487L667.258 378H705.193V430.17H712.581L711.958 453.247H702.163V438.43H662.568ZM694.817 430.17H668.702C669.204 429.421 669.691 428.619 670.164 427.763C671.187 425.882 672.1 423.723 672.903 421.289C673.733 418.826 674.438 416.045 675.02 412.946C675.601 409.847 676.002 406.361 676.223 402.487L677.183 386.301H694.817V430.17Z" fill="black"/>
<path d="M759.571 378L732.759 421.455V378H722.383V438.43H732.759L759.571 394.934V438.43H769.988V378H759.571Z" fill="black"/>
<path d="M796.011 378L813.484 424.609L830.916 378H844.488V438.43H834.07V418.342L835.096 391.4L817.137 438.43H809.749L791.832 391.427L792.857 418.342V438.43H782.481V378H796.011Z" fill="black"/>
<path d="M891.96 378L865.149 421.455V378H854.773V438.43H865.149L891.96 394.934V438.43H902.378V378H891.96Z" fill="black"/>
<path fill-rule="evenodd" clip-rule="evenodd" d="M941.822 415.893H929.288V438.43H918.871V378H941.822C946.498 378 950.469 378.83 953.734 380.49C957.027 382.123 959.531 384.392 961.246 387.297C962.962 390.174 963.819 393.467 963.819 397.175C963.819 401.076 962.962 404.424 961.246 407.219C959.531 410.013 957.027 412.158 953.734 413.652C950.469 415.146 946.498 415.893 941.822 415.893ZM929.288 386.301V407.634H941.822C944.562 407.634 946.775 407.191 948.463 406.306C950.151 405.42 951.382 404.203 952.157 402.653C952.959 401.076 953.36 399.278 953.36 397.258C953.36 395.349 952.959 393.564 952.157 391.904C951.382 390.216 950.151 388.86 948.463 387.836C946.775 386.813 944.562 386.301 941.822 386.301H929.288Z" fill="black"/>
<path d="M989.218 416.121L978.917 432.661H985.806L997.718 416.516V415.727L985.806 399.582H978.917L989.218 416.121Z" fill="black"/>
<path d="M1004.66 416.121L994.356 432.661H1001.25L1013.16 416.516V415.727L1001.25 399.582H994.356L1004.66 416.121Z" fill="black"/>
<path d="M243.025 460.68V484.679C244.549 482.79 246.361 481.334 248.462 480.311C250.62 479.232 253.014 478.692 255.642 478.692C257.856 478.692 259.848 478.997 261.619 479.605C263.417 480.214 264.967 481.196 266.267 482.552C267.568 483.88 268.55 485.624 269.214 487.782C269.906 489.912 270.251 492.513 270.251 495.584V524.43H260.208V495.501C260.208 493.343 259.889 491.628 259.253 490.355C258.644 489.082 257.745 488.169 256.555 487.616C255.365 487.035 253.913 486.744 252.197 486.744C250.399 486.744 248.808 487.104 247.424 487.823C246.069 488.543 244.934 489.525 244.021 490.77C243.653 491.272 243.321 491.805 243.025 492.37V524.43H233.064V460.68H243.025Z" fill="black"/>
<path fill-rule="evenodd" clip-rule="evenodd" d="M278.469 502.474V501.52C278.469 498.282 278.94 495.28 279.88 492.513C280.821 489.719 282.177 487.298 283.948 485.25C285.746 483.175 287.932 481.57 290.505 480.436C293.106 479.273 296.039 478.692 299.304 478.692C302.597 478.692 305.53 479.273 308.103 480.436C310.704 481.57 312.904 483.175 314.702 485.25C316.501 487.298 317.87 489.719 318.811 492.513C319.752 495.28 320.222 498.282 320.222 501.52V502.474C320.222 505.711 319.752 508.714 318.811 511.48C317.87 514.247 316.501 516.668 314.702 518.744C312.904 520.791 310.718 522.396 308.145 523.558C305.571 524.693 302.652 525.26 299.387 525.26C296.095 525.26 293.148 524.693 290.547 523.558C287.974 522.396 285.788 520.791 283.989 518.744C282.191 516.668 280.821 514.247 279.88 511.48C278.94 508.714 278.469 505.711 278.469 502.474ZM288.472 501.52V502.474C288.472 504.494 288.679 506.403 289.094 508.202C289.509 510 290.16 511.577 291.045 512.933C291.93 514.289 293.065 515.354 294.448 516.129C295.832 516.904 297.478 517.291 299.387 517.291C301.241 517.291 302.846 516.904 304.202 516.129C305.585 515.354 306.72 514.289 307.605 512.933C308.49 511.577 309.141 510 309.556 508.202C309.998 506.403 310.22 504.494 310.22 502.474V501.52C310.22 499.527 309.998 497.646 309.556 495.875C309.141 494.077 308.477 492.486 307.563 491.102C306.678 489.719 305.544 488.639 304.16 487.865C302.804 487.062 301.186 486.661 299.304 486.661C297.423 486.661 295.79 487.062 294.407 487.865C293.051 488.639 291.93 489.719 291.045 491.102C290.16 492.486 289.509 494.077 289.094 495.875C288.679 497.646 288.472 499.527 288.472 501.52Z" fill="black"/>
<path d="M349.192 486.827V479.522H341.182V468.524H331.179V479.522H323.875V486.827H331.179V512.643C331.179 515.714 331.677 518.176 332.673 520.03C333.669 521.884 335.053 523.226 336.824 524.056C338.595 524.859 340.628 525.26 342.925 525.26C344.336 525.26 345.581 525.163 346.66 524.969C347.767 524.776 348.735 524.554 349.565 524.305L349.524 516.668C349.137 516.751 348.625 516.834 347.988 516.917C347.352 517 346.688 517.042 345.996 517.042C345.028 517.042 344.184 516.917 343.464 516.668C342.745 516.419 342.178 515.935 341.763 515.216C341.375 514.469 341.182 513.404 341.182 512.02V486.827H349.192Z" fill="black"/>
<path fill-rule="evenodd" clip-rule="evenodd" d="M376.709 525.26C373.389 525.26 370.387 524.72 367.703 523.641C365.046 522.534 362.778 520.999 360.896 519.034C359.042 517.07 357.617 514.759 356.621 512.103C355.625 509.447 355.127 506.583 355.127 503.512V501.852C355.127 498.338 355.639 495.156 356.663 492.306C357.686 489.456 359.111 487.021 360.938 485.001C362.764 482.953 364.922 481.39 367.412 480.311C369.902 479.232 372.6 478.692 375.505 478.692C378.715 478.692 381.523 479.232 383.931 480.311C386.338 481.39 388.33 482.912 389.907 484.876C391.512 486.813 392.702 489.124 393.477 491.808C394.279 494.492 394.68 497.452 394.68 500.689V504.964H365.221C365.319 506.384 365.566 507.726 365.959 508.99C366.513 510.65 367.315 512.103 368.367 513.348C369.418 514.593 370.691 515.576 372.185 516.295C373.679 516.987 375.381 517.333 377.29 517.333C379.697 517.333 381.842 516.848 383.723 515.88C385.605 514.911 387.237 513.542 388.621 511.771L393.892 516.876C392.923 518.287 391.664 519.643 390.115 520.943C388.565 522.216 386.67 523.254 384.429 524.056C382.215 524.859 379.642 525.26 376.709 525.26ZM365.835 495.584C365.668 496.284 365.532 497.017 365.428 497.784H384.802V496.996C384.747 495.197 384.387 493.509 383.723 491.932C383.087 490.355 382.104 489.082 380.776 488.114C379.448 487.145 377.677 486.661 375.464 486.661C373.804 486.661 372.323 487.021 371.023 487.74C369.75 488.432 368.685 489.442 367.827 490.77C366.969 492.098 366.305 493.703 365.835 495.584Z" fill="black"/>
<path d="M413.191 524.43V460.68H403.147V524.43H413.191Z" fill="black"/>
<path d="M465.539 485.624L455.238 502.163L465.539 518.744H458.691L446.779 502.557V501.769L458.691 485.624H465.539Z" fill="black"/>
<path d="M480.563 485.624L470.262 502.163L480.563 518.744H473.715L461.804 502.557V501.769L473.715 485.624H480.563Z" fill="black"/>
<path d="M515.794 524.43L494.212 464H505.667L520.901 511.707L536.255 464H547.752L526.087 524.43H515.794Z" fill="black"/>
<path d="M599.369 516.17V524.43H561.517V464H571.935V516.17H599.369Z" fill="black"/>
<path fill-rule="evenodd" clip-rule="evenodd" d="M634.021 464L656.848 524.43H645.891L641.001 510.277H617.607L612.729 524.43H601.813L624.558 464H634.021ZM620.454 502.018H638.148L629.291 476.382L620.454 502.018Z" fill="black"/>
<path fill-rule="evenodd" clip-rule="evenodd" d="M689.169 524.43H671.613V464H689.542C693.555 464 697.221 464.678 700.541 466.034C703.861 467.362 706.725 469.285 709.132 471.803C711.567 474.321 713.435 477.337 714.735 480.851C716.036 484.365 716.686 488.294 716.686 492.638V495.833C716.686 500.178 716.036 504.107 714.735 507.621C713.435 511.135 711.567 514.151 709.132 516.668C706.697 519.159 703.792 521.082 700.417 522.438C697.068 523.766 693.319 524.43 689.169 524.43ZM689.169 516.17H682.03V472.301H689.542C692.226 472.301 694.592 472.743 696.64 473.629C698.715 474.514 700.458 475.815 701.869 477.53C703.308 479.246 704.387 481.362 705.106 483.88C705.854 486.398 706.227 489.29 706.227 492.555V495.833C706.227 500.039 705.577 503.664 704.276 506.708C703.004 509.751 701.094 512.089 698.549 513.722C696.031 515.354 692.904 516.17 689.169 516.17Z" fill="black"/>
<path d="M744.268 524.43V464H733.851V524.43H744.268Z" fill="black"/>
<path d="M773.748 464L791.221 510.609L808.652 464H822.224V524.43H811.807V504.342L812.832 477.4L794.873 524.43H787.485L769.569 477.427L770.593 504.342V524.43H760.217V464H773.748Z" fill="black"/>
<path d="M846.715 524.43V464H836.298V524.43H846.715Z" fill="black"/>
<path fill-rule="evenodd" clip-rule="evenodd" d="M863.665 464H885.039C889.632 464 893.547 464.692 896.785 466.075C900.022 467.459 902.498 469.506 904.214 472.218C905.957 474.902 906.829 478.222 906.829 482.179C906.829 485.195 906.275 487.851 905.168 490.147C904.062 492.444 902.498 494.381 900.479 495.958C899.064 497.043 897.459 497.959 895.665 498.705L909.277 523.89V524.43H898.154L885.957 501.104H874.082V524.43H863.665V464ZM885.205 492.845H874.082V472.301H885.039C887.64 472.301 889.784 472.73 891.472 473.587C893.16 474.417 894.405 475.621 895.208 477.198C896.038 478.748 896.453 480.574 896.453 482.677C896.453 484.614 896.024 486.357 895.166 487.906C894.336 489.428 893.091 490.632 891.431 491.517C889.771 492.402 887.695 492.845 885.205 492.845Z" fill="black"/>
<path d="M941.265 502.121L930.963 518.661H937.853L949.765 502.516V501.727L937.853 485.582H930.963L941.265 502.121Z" fill="black"/>
<path d="M956.704 502.121L946.403 518.661H953.292L965.204 502.516V501.727L953.292 485.582H946.403L956.704 502.121Z" fill="black"/>
</g>
<defs>
<clipPath id="clip0_715_363">
<rect width="1280" height="555" fill="white"/>
</clipPath>
</defs>
</svg>